<?xml version="1.0" encoding="utf-8"?>
<!-- Generator: Adobe Illustrator 23.0.2, SVG Export Plug-In . SVG Version: 6.00 Build 0)  -->
<svg version="1.1" id="レイヤー_1" xmlns="http://www.w3.org/2000/svg" xmlns:xlink="http://www.w3.org/1999/xlink" x="0px"
	 y="0px" width="273.9px" height="75.9px" viewBox="0 0 273.9 75.9" style="enable-background:new 0 0 273.9 75.9;"
	 xml:space="preserve">
<style type="text/css">
	.st0{fill:#FFFFFF;}
</style>
<g>
	<path class="st0" d="M1.2,65.8c0,0,2.8,0.7,6,0.7c3.5,0,7.5-0.6,11.3-2.6c3.6-1.8,6-4.5,6-9c0-5.2-4.3-8.6-8-12.4
		C12,38,6.2,31.9,6.2,22.3c0-7.3,5.3-14.7,10.7-18C21.2,1.7,26.4,0,31.7,0c4.8,0,6.2,0.9,7.1,1.8c0.8,0.8,0.6,2.4,0.3,3.5L38,9.7
		c-1.7-0.4-3.6-0.8-5.7-0.7c-2.6,0.1-4.9,0.9-7,2.7c-1.8,1.5-3.2,3.6-3.2,6.5c0,5.9,4.1,10.3,9.2,14.8c5.4,4.8,10.1,10.4,10.1,19.2
		c0,8.8-4.3,14.2-9.9,17.7c-7.8,4.9-18.2,6-24.4,6c-2.6,0-4.2-0.5-5.3-1.4C0.6,73.6,0,72.1,0,70C0,68.5,0.4,67,1.2,65.8z"/>
	<path class="st0" d="M96,0C73.8,0,54.4,12.4,54.4,37.7c0,23,15.5,38.2,37.9,38.2c22.3,0,39.9-14.2,39.9-39.6
		C132.2,10.9,112.8,0,96,0z M93.5,63.6c-15.2,0-22.7-12.1-22.7-26.6c0-15.6,10.2-25.2,23.9-25.2c14.4,0,22.4,10.8,22.4,25.7
		C117,52.4,109.3,63.6,93.5,63.6z"/>
	<path class="st0" d="M237.7,0c-22.2,0-41.5,12.4-41.5,37.7c0,23,15.5,38.2,37.9,38.2c22.3,0,39.9-14.2,39.9-39.6
		C273.9,10.9,254.5,0,237.7,0z M235.2,63.6c-15.2,0-22.7-12.1-22.7-26.6c0-15.6,10.2-25.2,23.9-25.2c14.4,0,22.4,10.8,22.4,25.7
		C258.7,52.4,251,63.6,235.2,63.6z"/>
	<path class="st0" d="M142.9,65.8c0,0,2.8,0.7,6,0.7c3.5,0,7.5-0.6,11.3-2.6c3.6-1.8,6-4.5,6-9c0-5.2-4.3-8.6-8-12.4
		c-4.4-4.5-10.3-10.5-10.3-20.2c0-7.3,5.3-14.7,10.7-18c4.4-2.6,9.5-4.3,14.8-4.3c4.8,0,6.2,0.9,7.1,1.8c0.8,0.8,0.6,2.4,0.3,3.5
		l-1.2,4.3c-1.7-0.4-3.6-0.8-5.7-0.7c-2.6,0.1-4.9,0.9-7,2.7c-1.8,1.5-3.2,3.6-3.2,6.5c0,5.9,4.1,10.3,9.2,14.8
		c5.4,4.8,10.1,10.4,10.1,19.2c0,8.8-4.3,14.2-9.9,17.7c-7.8,4.9-18.2,6-24.4,6c-2.6,0-4.2-0.5-5.3-1.4c-1.1-0.9-1.7-2.4-1.7-4.5
		C141.7,68.5,142.1,67,142.9,65.8z"/>
</g>
</svg>
